PathFileType	4	(X/Y/Z)	pose_F01_0-96.trc
DataRate	CameraRate	NumFrames	NumMarkers	Units	OrigDataRate	OrigDataStartFrame	OrigNumFrames
30	30	10	21	m	30	36	96
Frame#	Time	CHip			RHip			RKnee			RAnkle			RBigToe			RSmallToe			RHeel			LHip			LKnee			LAnkle			LBigToe			LSmallToe			LHeel			Neck			Nose			RShoulder			RElbow			RWrist			LShoulder			LElbow			LWrist			
		X1	Y1	Z1	X2	Y2	Z2	X3	Y3	Z3	X4	Y4	Z4	X5	Y5	Z5	X6	Y6	Z6	X7	Y7	Z7	X8	Y8	Z8	X9	Y9	Z9	X10	Y10	Z10	X11	Y11	Z11	X12	Y12	Z12	X13	Y13	Z13	X14	Y14	Z14	X15	Y15	Z15	X16	Y16	Z16	X17	Y17	Z17	X18	Y18	Z18	X19	Y19	Z19	X20	Y20	Z20	X21	Y21	Z21	
36	1.2	-0.26565918062720145	1.8839247242617538	-0.5618942722771445	-0.28010273404738845	1.8819728756694427	-0.50283183382494	-0.2884948120811632	1.7351883334046356	-0.47441656921533815													-0.24667307803855631	1.8864987862737106	-0.6283897530842761	-0.23710461512166525	1.736007558183701	-0.6544629716734336	-0.23065347147715573	1.5876995027564076	-0.7009593283251426	-0.20760058898248904	1.5651556516488032	-0.6947723094793864	-0.20216103533278798	1.5752087226962628	-0.7304363776380628	-0.23890059401534797	1.5827160861642464	-0.6996125489523795	-0.2624983303409469	2.051637714827129	-0.5879778520669529	-0.25550978678835845	2.1109500223573545	-0.5214159296294101	-0.28433653483837495	2.0439880273089965	-0.5092287926476124	-0.2919351786144515	1.99204891984202	-0.407943124297577	-0.27080984979379813	2.066405084331946	-0.4659958359851794	-0.2388759275930909	2.0563840850545807	-0.6670020643423481	-0.2187104296429437	1.9776574124484854	-0.6871496455437455	-0.19723127210154615	1.9057055851608993	-0.6365177227015199
37	1.2333333333333334	-0.26571627447526835	1.8832739651174024	-0.5618095791741102	-0.2811096954877305	1.8810813428140427	-0.4976174126130145	-0.2884948120811632	1.7351883334046356	-0.47441656921533815													-0.2487541126062406	1.885293943813846	-0.6262423518751518	-0.2364478218396359	1.736368066833044	-0.6510472144030904	-0.23061104302824356	1.587181434459732	-0.701142123443867	-0.20760058898248904	1.5651556516488032	-0.6947723094793864	-0.20216103533278798	1.5752087226962628	-0.7304363776380628	-0.23834496887301798	1.582354067193097	-0.6979866853770956	-0.2635774327904798	2.051627955720415	-0.5827214352098242	-0.25765125628826774	2.1015870135616703	-0.5082988423808834	-0.28622162216316793	2.0440802093606076	-0.507126264703242	-0.29422844492244804	1.9886082876281108	-0.4139865001448153	-0.2774269320441356	2.057993582093846	-0.46018949815690197	-0.24009759742287232	2.0549833957902277	-0.6613543116145014	-0.22423391475241394	1.9767798706001647	-0.6767721324539391	-0.20159279047599576	1.9020596480122776	-0.6313267845118317
38	1.2666666666666666	-0.2679203889097174	1.884957309835493	-0.5597943771933326	-0.2844679229719736	1.8817334974153686	-0.4985164273371113	-0.2884948120811632	1.7351883334046356	-0.47441656921533815													-0.25096702004988164	1.8847380037014916	-0.6239134716762123	-0.23829751768679697	1.7340617046626239	-0.6489009561021678	-0.23047291483110977	1.5870604845102236	-0.7008452461900525	-0.20760058898248904	1.5651556516488032	-0.6947723094793864	-0.20216103533278798	1.5752087226962628	-0.7304363776380628	-0.237789343730688	1.5819920482219474	-0.6963608218018118	-0.26465438650965095	2.0512544461399003	-0.5774069356152025	-0.2578180526390122	2.0973919941876202	-0.4996487563627467	-0.2882015769449734	2.045552010675037	-0.5053638244493464	-0.29409071267752956	1.9823942480124868	-0.40399781148816855	-0.2751796014254686	2.057139151400208	-0.45248754505960453	-0.24043708794163374	2.0549432583770364	-0.653000695104885	-0.224648588562102	1.9765354733899823	-0.6684397885547376	-0.2047901732539515	1.8993951839728476	-0.6232222658947831
39	1.3	-0.26944165901157696	1.882361420195962	-0.5570147385392227	-0.2847878307003788	1.8806940116397008	-0.4928367962651046	-0.2884948120811632	1.7351883334046356	-0.47441656921533815													-0.2539312270116681	1.8848022019163946	-0.6160553725832234	-0.24051200649516202	1.734578027954322	-0.6466518922325202	-0.230334786633976	1.5869395345607156	-0.7005483689362382	-0.20760058898248904	1.5651556516488032	-0.6947723094793864	-0.20216103533278798	1.5752087226962628	-0.7304363776380628	-0.23723371858835798	1.581630029250798	-0.6947349582265279	-0.26571713542393205	2.049519691348749	-0.5717026138795142	-0.2617430005979409	2.093067814564108	-0.4860724006355109	-0.287236944545182	2.042425058529936	-0.5012560954994322	-0.29619497138447937	1.979959877270142	-0.40202387467061235	-0.28254852995964375	2.049306354261404	-0.44234333235445833	-0.2416519144688969	2.0547019335407204	-0.6477402933986377	-0.22470719936532169	1.976527970019158	-0.6681250412187951	-0.21140516452608724	1.8986408423580223	-0.6163310265209567
40	1.3333333333333333	-0.2682688840374401	1.8810834182275686	-0.5537956510228405	-0.28589147778741286	1.8806580574054375	-0.49176759246689605	-0.2884948120811632	1.7351883334046356	-0.47441656921533815													-0.25368862466996894	1.8841689206342775	-0.6159189117086781	-0.23936532007249997	1.7317789508604329	-0.6434894284394459	-0.23019988079385148	1.5873167992265977	-0.7006265255400624	-0.20760058898248904	1.5651556516488032	-0.6947723094793864	-0.20216103533278798	1.5752087226962628	-0.7304363776380628	-0.23742389604681188	1.5821180589607928	-0.6958908178949736	-0.2670363189667778	2.0478131863874416	-0.5663889261982723	-0.26550823145342717	2.091231808793177	-0.47295618671014567	-0.293117275690108	2.042182533334329	-0.4947021233022777	-0.2963069068925235	1.979645549267483	-0.401828052584875	-0.2815702838702743	2.0354240005115787	-0.42767095730983695	-0.24191530436668296	2.0544606959921863	-0.639413934581727	-0.22620315584580278	1.9723603102679754	-0.6624751250685679	-0.21264190294310026	1.8949038374302454	-0.6106115165227242
41	1.3666666666666667	-0.26864865680627037	1.8829672624461018	-0.5539070049737549	-0.286995124874447	1.880622103171174	-0.4906983886686874	-0.2884948120811632	1.7351883334046356	-0.47441656921533815													-0.2551564196592456	1.8860287546354453	-0.6107795246587994	-0.23992245273444043	1.732515200784042	-0.6470027653974773	-0.23006497495372696	1.5876940638924801	-0.7007046821438868	-0.20760058898248904	1.5651556516488032	-0.6947723094793864	-0.20216103533278798	1.5752087226962628	-0.7304363776380628	-0.23761407350526578	1.5826060886707878	-0.6970466775634193	-0.2690926881714508	2.0490430946021347	-0.5646997911419106	-0.2674992450476611	2.0922746954338454	-0.4704193809353335	-0.2951004527516674	2.043652533464105	-0.4931731625793198	-0.29777296085020627	1.9801226213539997	-0.39127725399267804	-0.28407548971166474	2.0370290127702515	-0.41944504585160874	-0.2411079934705625	2.0541087306596846	-0.6361658316507266	-0.22970904112243454	1.9728721996687903	-0.6553905976513259	-0.2151307935004328	1.8943530035892386	-0.6082465860759193
42	1.4	-0.2696725945710711	1.882342526678101	-0.5486136902924422	-0.285912031253709	1.8818810187252855	-0.4876107572875948	-0.2884948120811632	1.7351883334046356	-0.47441656921533815													-0.25425015587020194	1.8857058815025354	-0.6075380112265052	-0.238768598824074	1.7347413879648725	-0.6401041288378769	-0.22993006911360245	1.5880713285583623	-0.7007828387477111	-0.20760058898248904	1.5651556516488032	-0.6947723094793864	-0.20216103533278798	1.5752087226962628	-0.7304363776380628	-0.23780425096371968	1.5830941183807825	-0.6982025372318651	-0.27005890659562587	2.050073907302281	-0.5595539478546268	-0.2705027009838447	2.0922386908060804	-0.46393035368677776	-0.2939983443576403	2.0434550873487827	-0.4895131239728968	-0.3015805428065132	1.9814341695245574	-0.3873189684136737	-0.2877355762771812	2.044518634555804	-0.416596167700587	-0.2431801173746327	2.0552523322428313	-0.6344074061880535	-0.22982406000723762	1.9720753333368894	-0.6551043240958788	-0.21437359404222467	1.8960020180109092	-0.6052854620741314
43	1.4333333333333333	-0.26940048917056825	1.8857643480100497	-0.5487703841546236	-0.28572557398440285	1.8847128534319333	-0.48758901771475627	-0.2884948120811632	1.7351883334046356	-0.47441656921533815													-0.2561629312790891	1.8876381507902549	-0.6055255907076909	-0.23902370699509107	1.7335891932332863	-0.6383378271516715	-0.22889089567463405	1.587012559006289	-0.6980611429217061	-0.20760058898248904	1.5651556516488032	-0.6947723094793864	-0.20216103533278798	1.5752087226962628	-0.7304363776380628	-0.23532088446090388	1.580455415726872	-0.6918160867819358	-0.27104845615631734	2.050580112647125	-0.5630722913704309	-0.2743773488733474	2.0911419252795804	-0.45988854291465425	-0.29617151413418297	2.0447642377721884	-0.4967878509196244	-0.3042339859204496	1.9861370670810639	-0.3809070723692659	-0.2912833480778869	2.052428770212456	-0.41356806323864465	-0.24020573136481987	2.0552037054063925	-0.6335507683943855	-0.22887890339328848	1.9718382308942928	-0.6520449844008621	-0.21656891578487006	1.8945266494974657	-0.5942414879815489
44	1.4666666666666666	-0.2703842490125623	1.8808612056972458	-0.5429459878526394	-0.2875908702997789	1.8797780769810928	-0.4849506001855428	-0.2884948120811632	1.7351883334046356	-0.47441656921533815													-0.2549997006274232	1.8849210870982536	-0.6018273763646222	-0.2392788151661081	1.7324369985016999	-0.6365715254654662	-0.22919519582695333	1.5888700619474334	-0.6977263294170217	-0.20760058898248904	1.5651556516488032	-0.6947723094793864	-0.20216103533278798	1.5752087226962628	-0.7304363776380628	-0.23606414934321907	1.5819964886969906	-0.6932617756320683	-0.271077882001996	2.0506792933204334	-0.5630558613414558	-0.276194954888013	2.0936140847156337	-0.45794865426468506	-0.2961655488238039	2.0436597072896343	-0.4963850983567138	-0.3077991732615788	1.9911373825855312	-0.3774685329904663	-0.29183428944883655	2.0551983795488518	-0.40825929921367793	-0.2422348958328566	2.055077683416695	-0.6313738685089575	-0.22787690365251898	1.972784557166792	-0.6490932325708798	-0.21465263780565	1.9007488929620449	-0.5975024686724458
45	1.5	-0.27017512581042014	1.8809295019155656	-0.5413383752267045	-0.28785455050390374	1.8802674945523843	-0.48496193260532255	-0.2884948120811632	1.7351883334046356	-0.47441656921533815													-0.2540998847227833	1.8828692783262155	-0.5982781381404991	-0.23953392333712517	1.7312848037701136	-0.6348052237792609	-0.2294994959792726	1.5907275648885781	-0.6973915159123375	-0.20760058898248904	1.5651556516488032	-0.6947723094793864	-0.20216103533278798	1.5752087226962628	-0.7304363776380628	-0.23680741422553428	1.583537561667109	-0.6947074644822006	-0.27011240668900893	2.0493975076974977	-0.5595929205124808	-0.2780030187427477	2.0946313467324535	-0.4557806891311287	-0.2952400995995082	2.0412003230706066	-0.49281139110231603	-0.3086108182154989	1.99375044187086	-0.3724738616675491	-0.29751761324769943	2.059022037980205	-0.40286336801433686	-0.24134093585602154	2.055081593280041	-0.6284159846215321	-0.2249244155494434	1.9739757525296655	-0.6483095692272522	-0.21433258402894742	1.9006813909242395	-0.5944559394426729
